<svg width="107" height="128" viewBox="0 0 107 128" fill="none" xmlns="http://www.w3.org/2000/svg">
<path d="M15.8599 40.0148V61.7063H0.543457V0.845307H9.85802H12.4692C13.1188 0.845307 13.6904 0.8323 14.184 0.806291C14.6777 0.754273 15.0934 0.728271 15.4312 0.728271H23.7714V12.0812H15.7819V28.857H23.7714V40.0148H15.8599ZM37.7238 61.7843L29.6953 47.5054V28.7009C34.9697 28.1287 37.6718 25.5408 37.8017 20.9372C37.8537 15.5014 35.1515 12.5754 29.6953 12.1592V0.845307C36.4766 0.897325 41.8549 2.31481 45.8302 5.09777C50.5069 8.34889 52.8453 13.2516 52.8453 19.8058C52.8453 24.5655 51.871 28.2327 49.9223 30.8076C48.2335 32.9924 45.1156 35.1902 40.5688 37.4009L54.3263 61.7843H37.7238Z" fill="#B31D24"/>
<path fill-rule="evenodd" clip-rule="evenodd" d="M1.08887 127.795V73.9954L18.6267 89.2107V89.5618H19.0165L32.6181 101.344H18.6267V115.857H49.2206L56.3137 121.982V127.795H1.08887ZM18.7047 78.677V80.9398L2.29703 66.6609H53.3128V78.677H18.7047ZM42.1275 101.344L28.6039 89.5618H51.1303V101.344H42.1275Z" fill="#B31D24"/>
<path d="M92.4809 127.366L83.9848 113.165L76.2292 127.366H61.6143C62.4717 125.962 63.7318 123.946 65.3946 121.319C67.0575 118.692 69.1361 115.376 71.6303 111.37C72.15 110.616 72.8515 109.563 73.7349 108.21C74.6443 106.832 75.7615 105.128 77.0866 103.1C75.8134 100.681 73.553 97.1826 70.3053 92.605C68.2787 89.7701 66.6808 87.4943 65.5116 85.7777C64.3684 84.0611 63.5889 82.9167 63.1732 82.3445H78.2947L84.4915 93.7364L90.6492 82.3445H104.835L95.3649 97.2476H73.4231C74.1246 98.34 74.7872 99.3674 75.4107 100.33C76.0083 101.266 76.5669 102.176 77.0866 103.061L91.6235 103.139L91.3507 103.49L106.589 127.366H92.4809Z" fill="#B31D24"/>
</svg>
