<svg width="24" height="24" viewBox="0 0 24 24" fill="none" xmlns="http://www.w3.org/2000/svg">
<path d="M1.2 10.8H2.4V18H1.2C1.04236 18.0002 0.886233 17.9693 0.740557 17.909C0.594881 17.8488 0.462519 17.7604 0.351051 17.6489C0.239583 17.5375 0.151199 17.4051 0.0909601 17.2594C0.0307214 17.1138 -0.000188349 16.9576 8.6345e-07 16.8V12C-0.000188349 11.8424 0.0307214 11.6862 0.0909601 11.5406C0.151199 11.3949 0.239583 11.2625 0.351051 11.151C0.462519 11.0396 0.594881 10.9512 0.740557 10.891C0.886233 10.8307 1.04236 10.7998 1.2 10.8V10.8ZM20.4 8.99999V19.2C20.3994 19.8363 20.1463 20.4464 19.6964 20.8964C19.2464 21.3463 18.6363 21.5994 18 21.6H6C5.36367 21.5994 4.75359 21.3463 4.30364 20.8964C3.85369 20.4464 3.60063 19.8363 3.6 19.2V8.99999C3.59987 8.60599 3.67738 8.21583 3.8281 7.85179C3.97882 7.48776 4.19979 7.15699 4.47839 6.87839C4.757 6.59979 5.08777 6.37881 5.4518 6.22809C5.81583 6.07738 6.206 5.99987 6.6 5.99999H10.8V3.59999C10.8 3.28173 10.9264 2.97651 11.1515 2.75147C11.3765 2.52642 11.6817 2.39999 12 2.39999C12.3183 2.39999 12.6235 2.52642 12.8485 2.75147C13.0736 2.97651 13.2 3.28173 13.2 3.59999V5.99999H17.4C17.794 5.99987 18.1842 6.07738 18.5482 6.22809C18.9122 6.37881 19.243 6.59979 19.5216 6.87839C19.8002 7.15699 20.0212 7.48776 20.1719 7.85179C20.3226 8.21583 20.4001 8.60599 20.4 8.99999V8.99999ZM9.9 12C9.9 11.7033 9.81203 11.4133 9.64721 11.1666C9.48238 10.92 9.24812 10.7277 8.97403 10.6142C8.69994 10.5006 8.39834 10.4709 8.10737 10.5288C7.81639 10.5867 7.54912 10.7296 7.33934 10.9393C7.12956 11.1491 6.9867 11.4164 6.92882 11.7074C6.87095 11.9983 6.90065 12.2999 7.01418 12.574C7.12771 12.8481 7.31997 13.0824 7.56665 13.2472C7.81332 13.412 8.10333 13.5 8.4 13.5C8.59699 13.5 8.79205 13.4612 8.97404 13.3858C9.15604 13.3105 9.3214 13.2 9.46069 13.0607C9.59999 12.9214 9.71047 12.756 9.78585 12.574C9.86123 12.392 9.90002 12.197 9.9 12V12ZM9.6 16.8H7.2V18H9.6V16.8ZM13.2 16.8H10.8V18H13.2V16.8ZM17.1 12C17.1 11.7033 17.012 11.4133 16.8472 11.1666C16.6824 10.92 16.4481 10.7277 16.174 10.6142C15.8999 10.5006 15.5983 10.4709 15.3074 10.5288C15.0164 10.5867 14.7491 10.7296 14.5393 10.9393C14.3296 11.1491 14.1867 11.4164 14.1288 11.7074C14.0709 11.9983 14.1007 12.2999 14.2142 12.574C14.3277 12.8481 14.52 13.0824 14.7666 13.2472C15.0133 13.412 15.3033 13.5 15.6 13.5C15.797 13.5 15.992 13.4612 16.174 13.3858C16.356 13.3105 16.5214 13.2 16.6607 13.0607C16.8 12.9214 16.9105 12.756 16.9859 12.574C17.0612 12.392 17.1 12.197 17.1 12V12ZM16.8 16.8H14.4V18H16.8V16.8ZM24 12V16.8C24.0002 16.9576 23.9693 17.1138 23.909 17.2594C23.8488 17.4051 23.7604 17.5375 23.649 17.6489C23.5375 17.7604 23.4051 17.8488 23.2594 17.909C23.1138 17.9693 22.9576 18.0002 22.8 18H21.6V10.8H22.8C22.9576 10.7998 23.1138 10.8307 23.2594 10.891C23.4051 10.9512 23.5375 11.0396 23.649 11.151C23.7604 11.2625 23.8488 11.3949 23.909 11.5406C23.9693 11.6862 24.0002 11.8424 24 12V12Z" fill="#B31D24"/>
</svg>
